PathFileType  4	(X/Y/Z) C:\Users\wagnerel85475\Documents\Thesis\opencap-core\Data\3375ffbc-daeb-4a43-b4f7-ac9899cd4c71\MarkerData\PreAugmentation
DataRate	CameraRate	NumFrames	NumMarkers	Units	OrigDataRate	OrigDataStartFrame	OrigNumFrames
60.0	60.0	17	20	m	60.0	1	640
Frame#	Time	Neck			RShoulder			RElbow			RWrist			LShoulder			LElbow			LWrist			midHip			RHip			RKnee			RAnkle			LHip			LKnee			LAnkle			LBigToe			LSmallToe			LHeel			RBigToe			RSmallToe			RHeel			
		X1	Y1	Z1	X2	Y2	Z2	X3	Y3	Z3	X4	Y4	Z4	X5	Y5	Z5	X6	Y6	Z6	X7	Y7	Z7	X8	Y8	Z8	X9	Y9	Z9	X10	Y10	Z10	X11	Y11	Z11	X12	Y12	Z12	X13	Y13	Z13	X14	Y14	Z14	X15	Y15	Z15	X16	Y16	Z16	X17	Y17	Z17	X18	Y18	Z18	X19	Y19	Z19	X20	Y20	Z20	

1	0.0000000	0.5759400	1.3901600	-0.0872900	0.5932300	1.3574700	0.0898700	0.5444500	1.0489400	0.1606400	0.6146700	0.7517400	0.2075400	0.5858600	1.4212500	-0.2612200	0.7344400	1.6491100	-0.4367600	0.7400600	1.9419700	-0.4077700	0.6294200	0.8073200	-0.0861900	0.6341800	0.8108100	0.0342900	0.5696200	0.3184900	0.0369900	0.5224400	-0.1887600	0.0854100	0.6165700	0.7998300	-0.2093400	0.5505200	0.3068300	-0.2061400	0.5581400	-0.1819800	-0.2642200	0.7600200	-0.2384600	-0.3282500	0.7153400	-0.2443100	-0.3540000	0.5024300	-0.2391500	-0.2580600	0.7061900	-0.2419400	0.1720200	0.6687900	-0.2424300	0.1965000	0.4912700	-0.2303700	0.0672300
2	0.0166667	0.5759100	1.3901800	-0.0871900	0.5982000	1.3575400	0.0871300	0.5443500	1.0490600	0.1606400	0.6146200	0.7518100	0.2074800	0.5813100	1.4193100	-0.2585000	0.7392600	1.6628000	-0.4343000	0.7298000	1.9498400	-0.4037900	0.6294100	0.8049900	-0.0863600	0.6341300	0.8090900	0.0343000	0.5693900	0.3184400	0.0370400	0.5286200	-0.1866900	0.0873100	0.6163900	0.7977200	-0.2095700	0.5450200	0.3057400	-0.2081900	0.5584300	-0.1819400	-0.2641900	0.7646600	-0.2367500	-0.3262600	0.7153600	-0.2443000	-0.3539900	0.5026800	-0.2390500	-0.2579300	0.7109300	-0.2400600	0.1695000	0.6743500	-0.2404200	0.1937100	0.4972300	-0.2309100	0.0687800
3	0.0333333	0.5759300	1.3901500	-0.0872800	0.5982000	1.3574000	0.0872700	0.5441200	1.0470400	0.1607200	0.6088200	0.7486200	0.2056300	0.5862500	1.4190700	-0.2565400	0.7229600	1.6730100	-0.4283200	0.7295900	1.9633100	-0.4032500	0.6296000	0.8051500	-0.0862800	0.6291600	0.8102500	0.0368700	0.5696200	0.3185200	0.0369700	0.5284000	-0.1867900	0.0872400	0.6165800	0.7998400	-0.2093100	0.5448800	0.3033000	-0.2085700	0.5581200	-0.1820000	-0.2642300	0.7648500	-0.2367100	-0.3260600	0.7153400	-0.2443100	-0.3540000	0.5025300	-0.2372600	-0.2577100	0.7109400	-0.2401400	0.1694200	0.6735300	-0.2406700	0.1938700	0.4972700	-0.2312400	0.0687500
4	0.0500000	0.5703800	1.3923100	-0.0892900	0.5980900	1.3557600	0.0871100	0.5440600	1.0471500	0.1606700	0.6135500	0.7517000	0.2030000	0.5815900	1.4214400	-0.2584100	0.7178600	1.6773200	-0.4263000	0.7288000	1.9701100	-0.3994100	0.6293300	0.8092500	-0.0863600	0.6346300	0.8126600	0.0340200	0.5693900	0.3184400	0.0370500	0.5226800	-0.1886400	0.0854900	0.6162600	0.8019600	-0.2095700	0.5505600	0.3046900	-0.2061700	0.5584300	-0.1819600	-0.2641900	0.7646300	-0.2367700	-0.3262700	0.7153300	-0.2443200	-0.3540000	0.5028000	-0.2371600	-0.2575700	0.7109600	-0.2400300	0.1695100	0.6743500	-0.2403300	0.1937100	0.4972100	-0.2309300	0.0687800
5	0.0666667	0.5701900	1.3903300	-0.0894100	0.5980800	1.3555800	0.0872600	0.5445000	1.0446500	0.1606000	0.6183300	0.7522300	0.2003000	0.5823600	1.4195700	-0.2586100	0.7071400	1.6802500	-0.4219200	0.7234900	1.9708100	-0.3974100	0.6292800	0.8095700	-0.0860700	0.6338800	0.8133800	0.0344300	0.5695900	0.3185000	0.0369800	0.5285300	-0.1891200	0.0869000	0.6165900	0.7998800	-0.2093300	0.5505400	0.3067900	-0.2061200	0.5581300	-0.1819900	-0.2642200	0.7648600	-0.2367000	-0.3260500	0.7153500	-0.2443000	-0.3539900	0.4969400	-0.2392000	-0.2599500	0.7109400	-0.2401400	0.1694300	0.6735100	-0.2406600	0.1938900	0.4972800	-0.2312600	0.0687500
6	0.0833333	0.5814300	1.3921500	-0.0896300	0.5981300	1.3557100	0.0870900	0.5440600	1.0471900	0.1606300	0.6124500	0.7515800	0.1985100	0.5879600	1.4210800	-0.2560200	0.7072900	1.6796200	-0.4175100	0.7080300	1.9769500	-0.3911100	0.6290200	0.8094300	-0.0861300	0.6292500	0.8145400	0.0367300	0.5693800	0.3184300	0.0370200	0.5287500	-0.1890400	0.0869600	0.6161600	0.8019000	-0.2093500	0.5562200	0.3082600	-0.2036900	0.5584300	-0.1819000	-0.2641900	0.7646200	-0.2368200	-0.3262700	0.7153700	-0.2422600	-0.3536700	0.4972600	-0.2390700	-0.2598100	0.7109300	-0.2400700	0.1695100	0.6696300	-0.2422000	0.1963300	0.4972100	-0.2309200	0.0687700
7	0.1000000	0.5759400	1.3902000	-0.0872700	0.5980000	1.3537700	0.0872400	0.5441500	1.0470900	0.1606700	0.6172200	0.7502600	0.1959500	0.5820000	1.4215000	-0.2540700	0.7071100	1.6820600	-0.4172700	0.6975100	1.9781900	-0.3870100	0.6236900	0.8089700	-0.0881600	0.6288300	0.8127800	0.0370000	0.5695900	0.3185200	0.0369700	0.5285300	-0.1891200	0.0868900	0.6165000	0.8019700	-0.2092300	0.5562800	0.3104600	-0.2036700	0.5581000	-0.1819500	-0.2642200	0.7648500	-0.2367400	-0.3260400	0.7154000	-0.2422400	-0.3536600	0.4969500	-0.2391800	-0.2599500	0.7109300	-0.2401500	0.1694300	0.6687600	-0.2424800	0.1965200	0.4972800	-0.2312500	0.0687400
8	0.1166667	0.5704200	1.3923500	-0.0893000	0.5981200	1.3557000	0.0870700	0.5437500	1.0452700	0.1606900	0.6173200	0.7522000	0.1957600	0.5761800	1.4214200	-0.2560900	0.7070500	1.6837800	-0.4174300	0.6925200	1.9793000	-0.3848100	0.6290400	0.8094200	-0.0861100	0.6290400	0.8127600	0.0368700	0.5693700	0.3184100	0.0370200	0.5287600	-0.1890200	0.0869700	0.6217000	0.8003900	-0.2072000	0.5506100	0.3070000	-0.2059500	0.5530900	-0.1836600	-0.2663500	0.7645900	-0.2367800	-0.3262700	0.7153500	-0.2422500	-0.3536700	0.4972500	-0.2390700	-0.2598100	0.7109500	-0.2400600	0.1695200	0.6696800	-0.2422100	0.1963300	0.4972000	-0.2309100	0.0687700
9	0.1333333	0.5703900	1.3923200	-0.0894400	0.6030400	1.3554300	0.0846200	0.5441600	1.0470700	0.1606500	0.6172500	0.7521300	0.1957800	0.5768300	1.4234700	-0.2563500	0.7068000	1.6864100	-0.4127900	0.6923300	1.9792900	-0.3848200	0.6238200	0.8024800	-0.0882800	0.6341200	0.8108600	0.0342800	0.5695900	0.3184800	0.0369600	0.5286000	-0.1891100	0.0869200	0.6109900	0.7992400	-0.2115900	0.5448800	0.3032500	-0.2085800	0.5581100	-0.1819500	-0.2642100	0.7551800	-0.2402300	-0.3304200	0.7104900	-0.2439900	-0.3558900	0.5081800	-0.2334000	-0.2551400	0.7165900	-0.2381600	0.1710900	0.6735000	-0.2406500	0.1939200	0.4973200	-0.2312700	0.0687600
10	0.1500000	0.5702900	1.3923200	-0.0892900	0.5980300	1.3538600	0.0870500	0.5440100	1.0472000	0.1606100	0.6163200	0.7539500	0.1911600	0.5759500	1.4254700	-0.2561000	0.7072200	1.6883400	-0.4127200	0.6973700	1.9783200	-0.3823500	0.6180200	0.8016600	-0.0904500	0.6294000	0.8059500	0.0367100	0.5746300	0.3214300	0.0342300	0.5288200	-0.1890400	0.0869900	0.6051700	0.7985800	-0.2139800	0.5505900	0.3069500	-0.2059400	0.5531000	-0.1836400	-0.2663400	0.7548900	-0.2403100	-0.3306700	0.7104400	-0.2439900	-0.3559100	0.5029900	-0.2352100	-0.2572100	0.7165300	-0.2381000	0.1711800	0.6697100	-0.2421900	0.1963200	0.4972400	-0.2309200	0.0687900
11	0.1666667	0.5703300	1.3922900	-0.0894000	0.5980100	1.3536900	0.0872100	0.5442200	1.0427000	0.1606600	0.6162000	0.7520300	0.1913200	0.5762700	1.4256200	-0.2563900	0.7068500	1.6887300	-0.4126200	0.6973600	1.9785200	-0.3779700	0.6183400	0.8038500	-0.0905100	0.6293500	0.8120300	0.0367200	0.5748100	0.3215300	0.0341500	0.5286000	-0.1891200	0.0869200	0.6055300	0.7986900	-0.2138500	0.5505300	0.3068300	-0.2061300	0.5527900	-0.1836900	-0.2663700	0.7551700	-0.2402300	-0.3304200	0.7104900	-0.2439700	-0.3558900	0.5026700	-0.2353300	-0.2573700	0.7165700	-0.2381600	0.1710600	0.6687500	-0.2424300	0.1965300	0.4973200	-0.2313000	0.0687700
12	0.1833333	0.5649800	1.3923700	-0.0868300	0.5979900	1.3538500	0.0870300	0.5440600	1.0428400	0.1606000	0.6221900	0.7528400	0.1930200	0.5763600	1.4231800	-0.2560400	0.7071400	1.6883400	-0.4127100	0.7025500	1.9778100	-0.3754700	0.6181700	0.8036700	-0.0905800	0.6293000	0.8102600	0.0367200	0.5745700	0.3214400	0.0342300	0.5288000	-0.1890400	0.0869800	0.6052200	0.7986000	-0.2140100	0.5505900	0.3069600	-0.2059500	0.5531200	-0.1836600	-0.2663500	0.7548400	-0.2403300	-0.3307000	0.7104000	-0.2439900	-0.3559300	0.5030100	-0.2352200	-0.2572100	0.7165400	-0.2380700	0.1711700	0.6744100	-0.2403700	0.1937000	0.4972000	-0.2309300	0.0687900
13	0.2000000	0.5649600	1.3923600	-0.0868900	0.5920600	1.3537700	0.0853500	0.5442800	1.0426200	0.1606300	0.6162200	0.7520300	0.1913000	0.5713200	1.4235800	-0.2540400	0.7065400	1.6907600	-0.4127700	0.7074900	1.9769000	-0.3731300	0.6184400	0.7996400	-0.0905400	0.6342400	0.8066900	0.0342500	0.5697100	0.3203200	0.0367100	0.5284600	-0.1886100	0.0876300	0.6109700	0.7971900	-0.2163400	0.5449300	0.3032700	-0.2086000	0.5525000	-0.1836200	-0.2656500	0.7550700	-0.2362600	-0.3304800	0.7105000	-0.2439200	-0.3558900	0.5085800	-0.2357200	-0.2547600	0.7118800	-0.2399600	0.1736900	0.6747700	-0.2424200	0.1978300	0.4973300	-0.2328100	0.0691100
14	0.2166667	0.5649300	1.3923800	-0.0867900	0.5920900	1.3539300	0.0851700	0.5441300	1.0427300	0.1605700	0.6162800	0.7521200	0.1912400	0.5709700	1.4232800	-0.2537200	0.7069000	1.6902700	-0.4128600	0.7075400	1.9765300	-0.3730800	0.6180800	0.8016600	-0.0904800	0.6341400	0.8091300	0.0342600	0.5695300	0.3203100	0.0367900	0.5287400	-0.1909400	0.0873500	0.6106900	0.7971000	-0.2164700	0.5393300	0.3021200	-0.2106400	0.5528200	-0.1835800	-0.2656300	0.7596100	-0.2346100	-0.3285400	0.7104500	-0.2439500	-0.3559100	0.5033900	-0.2375300	-0.2568400	0.7118600	-0.2399900	0.1738200	0.6598000	-0.2474800	0.2020600	0.4972500	-0.2337300	0.0694600
15	0.2333333	0.5647600	1.3904000	-0.0869300	0.5920600	1.3537900	0.0853500	0.5442800	1.0426200	0.1606400	0.6210800	0.7526400	0.1886300	0.5719200	1.4214300	-0.2539900	0.7068800	1.6884300	-0.4126100	0.7122800	1.9722800	-0.3706400	0.6182700	0.8018700	-0.0904200	0.6339400	0.8091600	0.0343900	0.5697700	0.3203900	0.0367000	0.5285300	-0.1910300	0.0872800	0.6110200	0.7972000	-0.2163300	0.5392600	0.3019700	-0.2108500	0.5524900	-0.1836200	-0.2656500	0.7599100	-0.2345400	-0.3282800	0.7105200	-0.2439400	-0.3558800	0.5030600	-0.2376500	-0.2569900	0.7118900	-0.2400100	0.1737000	0.6744300	-0.2403400	0.1982300	0.4974000	-0.2341300	0.0694300
16	0.2500000	0.5646500	1.3904100	-0.0868200	0.5920500	1.3539600	0.0851500	0.5490900	1.0429700	0.1579100	0.6270900	0.7534800	0.1903200	0.5710300	1.4234100	-0.2537200	0.7070200	1.6855300	-0.4128400	0.7067800	1.9701300	-0.3686200	0.6180700	0.8016400	-0.0904700	0.6343400	0.8109200	0.0341300	0.5748400	0.3233500	0.0339800	0.5287500	-0.1927200	0.0876900	0.6106400	0.7970600	-0.2164500	0.5393700	0.3021700	-0.2106500	0.5528000	-0.1835700	-0.2656400	0.7596100	-0.2346200	-0.3285400	0.7104400	-0.2439700	-0.3559100	0.5037500	-0.2356400	-0.2564900	0.7118300	-0.2398900	0.1738200	0.6693300	-0.2438100	0.1967500	0.4972500	-0.2338200	0.0694800
17	0.2666667	0.5595800	1.3905300	-0.0844500	0.5920400	1.3538000	0.0853500	0.5490100	1.0409500	0.1580500	0.6270300	0.7515600	0.1904900	0.5713900	1.4236300	-0.2540300	0.7120300	1.6838600	-0.4102000	0.7123900	1.9722700	-0.3706000	0.6182300	0.8018600	-0.0904100	0.6338700	0.8091400	0.0344000	0.5696900	0.3203800	0.0367000	0.5285300	-0.1928000	0.0876300	0.6109900	0.7971900	-0.2163100	0.5392400	0.3019900	-0.2108600	0.5524800	-0.1836200	-0.2656500	0.7599400	-0.2345200	-0.3282600	0.7105400	-0.2439400	-0.3558800	0.5033900	-0.2357300	-0.2566600	0.7118800	-0.2400000	0.1737000	0.6683300	-0.2441700	0.1969900	0.4974000	-0.2342000	0.0694400
